<?xml version="1.0" encoding="utf-8"?>
<svg width="17" height="29" viewBox="0 0 17 29" fill="none" xmlns="http://www.w3.org/2000/svg">
  <g id="Group">
    <g>
      <path id="Rectangle" d="M10 0C13.8665 0 17 3.13348 17 7L17 22C17 25.8665 13.8665 29 10 29L7 29C3.13348 29 0 25.8665 0 22L0 7C0 3.13348 3.13348 0 7 0L10 0Z" />
      <path d="M17 7C17 3.13348 13.8665 0 10 0L7 0C3.13348 0 0 3.13348 0 7L0 22C0 25.8665 3.13348 29 7 29L10 29C13.8665 29 17 25.8665 17 22L17 7ZM7 1L10 1Q12.4857 1 14.2428 2.75716Q16 4.51433 16 7L16 22Q16 24.4857 14.2428 26.2428Q12.4857 28 10 28L7 28Q4.51432 28 2.75716 26.2428Q1 24.4857 1 22L1 7Q1 4.51432 2.75716 2.75716Q4.51432 1 7 1Z" fill="#A1A1A1" fill-rule="evenodd" />
    </g>
    <path id="Rectangle" d="M1.5 0C2.32854 0 3 0.67146 3 1.5L3 1.5C3 2.32854 2.32854 3 1.5 3L1.5 3C0.67146 3 0 2.32854 0 1.5L0 1.5C0 0.67146 0.67146 0 1.5 0Z" fill="#C6C6C6" transform="translate(7 6)" />
  </g>
</svg>